<?xml version="1.0" encoding="utf-8"?>
<!-- Generator: Adobe Illustrator 18.0.0, SVG Export Plug-In . SVG Version: 6.00 Build 0)  -->
<!DOCTYPE svg PUBLIC "-//W3C//DTD SVG 1.1//EN" "http://www.w3.org/Graphics/SVG/1.1/DTD/svg11.dtd">
<svg version="1.1" xmlns="http://www.w3.org/2000/svg" xmlns:xlink="http://www.w3.org/1999/xlink" x="0px" y="0px"
	 viewBox="0 0 100 100" enable-background="new 0 0 100 100" xml:space="preserve">
<g id="Layer_1">
	<g>
		<path fill="#FFFFFF" d="M50,5C25.3,5,5.2,25.1,5,49.7c-0.1,12,4.5,23.4,13,31.9c8.4,8.6,19.7,13.3,31.7,13.4c0,0,0.3,0,0.3,0
			c24.7,0,44.8-20.1,45-44.7C95.2,25.5,75.1,5.2,50,5z M50,88.9h-0.3c-10.4-0.1-20.1-4.2-27.5-11.6C15,70,11,60.2,11.1,49.8
			c0.1-21.3,17.6-38.7,39.2-38.7c21.5,0.1,38.8,17.7,38.7,39.2C88.8,71.6,71.3,88.9,50,88.9z"/>
		<path fill="#FFFFFF" d="M72,30.8H28c-1.6,0-2.9,1.3-2.9,2.9c0,1.6,1.3,2.9,2.9,2.9h44c1.6,0,2.9-1.3,2.9-2.9
			C74.9,32.1,73.6,30.8,72,30.8z"/>
		<path fill="#FFFFFF" d="M72,47.1H28c-1.6,0-2.9,1.3-2.9,2.9c0,1.6,1.3,2.9,2.9,2.9h44c1.6,0,2.9-1.3,2.9-2.9
			C74.9,48.4,73.6,47.1,72,47.1z"/>
		<path fill="#FFFFFF" d="M72,63.3H28c-1.6,0-2.9,1.3-2.9,2.9s1.3,2.9,2.9,2.9h44c1.6,0,2.9-1.3,2.9-2.9S73.6,63.3,72,63.3z"/>
	</g>
</g>
<g id="Layer_2" display="none">
	<path display="inline" fill="#FFFFFF" d="M50,5C25.3,5,5.2,25.1,5,49.7c-0.1,12,4.5,23.4,13,31.9c8.4,8.6,19.7,13.3,31.7,13.4
		c0,0,0.3,0,0.3,0c24.7,0,44.8-20.1,45-44.7C95.2,25.5,75.1,5.2,50,5z M50,88.9h-0.3c-10.4-0.1-20.1-4.2-27.5-11.6
		C15,70,11,60.2,11.1,49.8c0.1-21.3,17.6-38.7,39.2-38.7c21.5,0.1,38.8,17.7,38.7,39.2C88.8,71.6,71.3,88.9,50,88.9z"/>
	<path display="inline" fill="#FFFFFF" d="M63.5,32.1L32.4,63.2c-1.1,1.1-1.1,3,0,4.1c1.1,1.1,3,1.1,4.1,0l31.1-31.1
		c1.1-1.1,1.1-3,0-4.1S64.6,31,63.5,32.1z"/>
	<path display="inline" fill="#FFFFFF" d="M67.6,63.7L36.5,32.6c-1.1-1.1-3-1.1-4.1,0c-1.1,1.1-1.1,3,0,4.1l31.1,31.1
		c1.1,1.1,3,1.1,4.1,0S68.7,64.9,67.6,63.7z"/>
</g>
</svg>
